<svg xmlns="http://www.w3.org/2000/svg" xmlns:xlink="http://www.w3.org/1999/xlink" width="100" zoomAndPan="magnify" viewBox="0 0 75 60" height="80" preserveAspectRatio="xMidYMid meet" version="1.0"><defs><clipPath id="0443808642"><path d="M 23 0.484375 L 53 0.484375 L 53 44 L 23 44 Z M 23 0.484375 " clip-rule="nonzero"/></clipPath><clipPath id="a23b1c19c1"><path d="M 11.78125 38 L 63.53125 38 L 63.53125 59.734375 L 11.78125 59.734375 Z M 11.78125 38 " clip-rule="nonzero"/></clipPath></defs><g clip-path="url(#0443808642)"><path fill="#ffffff" d="M 37.753906 0.796875 C 36.183594 0.796875 34.910156 2.066406 34.910156 3.632812 L 34.910156 34.0625 L 28.246094 27.414062 C 25.570312 24.824219 21.625 28.742188 24.226562 31.425781 C 24.226562 31.425781 35.742188 42.914062 35.742188 42.914062 C 36.816406 44.027344 38.6875 43.992188 39.761719 42.914062 C 39.761719 42.914062 51.28125 31.425781 51.28125 31.425781 C 53.875 28.75 49.949219 24.820312 47.257812 27.414062 C 47.257812 27.414062 40.597656 34.0625 40.597656 34.0625 L 40.597656 3.632812 C 40.597656 2.066406 39.324219 0.796875 37.753906 0.796875 Z M 37.753906 0.796875 " fill-opacity="1" fill-rule="nonzero"/></g><g clip-path="url(#a23b1c19c1)"><path fill="#ffffff" d="M 14.71875 38.074219 C 13.152344 38.074219 11.878906 39.34375 11.878906 40.910156 L 11.878906 45.09375 C 11.878906 52.992188 18.320312 59.421875 26.238281 59.421875 L 49.269531 59.421875 C 57.1875 59.421875 63.628906 52.992188 63.628906 45.09375 L 63.628906 40.910156 C 63.628906 39.34375 62.355469 38.074219 60.785156 38.074219 C 59.214844 38.074219 57.941406 39.34375 57.941406 40.910156 L 57.941406 45.09375 C 57.941406 49.867188 54.050781 53.746094 49.269531 53.746094 L 26.238281 53.746094 C 21.457031 53.746094 17.5625 49.867188 17.5625 45.09375 L 17.5625 40.910156 C 17.5625 39.34375 16.289062 38.074219 14.71875 38.074219 Z M 14.71875 38.074219 " fill-opacity="1" fill-rule="nonzero"/></g></svg>